<svg aria-hidden="true" style="position:absolute;width:0;height:0" xmlns="http://www.w3.org/2000/svg" overflow="hidden"><defs><symbol id="icon-icloud" viewBox="0 0 32 32"><path fill="var(--color1, #3693f3)" d="M26.684 14.301l.001-.037v-.002a8.46 8.46 0 00-15.876-4.078l-.022.044a4.49 4.49 0 00-2.108-.517 4.552 4.552 0 00-4.544 4.277l-.001.013c-2.432.906-4.133 3.208-4.135 5.906a6.293 6.293 0 006.292 6.292h19.743a5.967 5.967 0 00.677-11.894l-.028-.003z"/></symbol><symbol id="icon-menu3" viewBox="0 0 44 32"><path d="M0 6h28v6H0V6zm0 8h28v6H0v-6zm0 8h28v6H0v-6zM31 14l6 6 6-6z"/></symbol><symbol id="icon-menu4" viewBox="0 0 44 32"><path d="M0 6h28v6H0V6zm0 8h28v6H0v-6zm0 8h28v6H0v-6zM31 20l6-6 6 6z"/></symbol></defs></svg>